<svg width="920" height="729" viewBox="0 0 920 729" fill="none" xmlns="http://www.w3.org/2000/svg">
<g clip-path="url(#clip0)">
<path d="M738.666 172.947H734.667V63.4019C734.667 55.0759 733.027 46.8314 729.841 39.1391C726.654 31.4468 721.984 24.4574 716.097 18.57C710.21 12.6826 703.22 8.01244 695.528 4.82619C687.836 1.63995 679.591 3.93981e-06 671.265 1.54799e-10H439.178C422.363 -3.71302e-05 406.237 6.67975 394.346 18.5699C382.456 30.46 375.776 46.5865 375.776 63.4017V664.376C375.776 681.191 382.456 697.318 394.346 709.208C406.236 721.098 422.363 727.778 439.178 727.778H671.265C688.08 727.778 704.207 721.098 716.097 709.208C727.987 697.318 734.667 681.192 734.667 664.376V250.923H738.666L738.666 172.947Z" fill="#E6E6E6"/>
<path d="M721.172 63.8443V663.934C721.172 676.492 716.183 688.536 707.303 697.416C698.423 706.295 686.38 711.284 673.822 711.284H440.622C428.064 711.284 416.021 706.295 407.141 697.416C398.261 688.536 393.272 676.492 393.272 663.934V63.8443C393.272 51.2864 398.261 39.2429 407.141 30.3631C416.021 21.4833 428.064 16.4946 440.622 16.4943H468.912C467.522 19.9103 466.992 23.6155 467.37 27.2841C467.748 30.9527 469.022 34.4722 471.079 37.533C473.137 40.5938 475.915 43.1022 479.169 44.8374C482.423 46.5727 486.054 47.4816 489.742 47.4843H622.702C626.39 47.4816 630.021 46.5726 633.275 44.8374C636.529 43.1021 639.307 40.5938 641.365 37.5329C643.422 34.4721 644.696 30.9527 645.073 27.2841C645.451 23.6155 644.922 19.9103 643.532 16.4943H673.822C686.38 16.4946 698.423 21.4833 707.303 30.3631C716.183 39.2429 721.172 51.2864 721.172 63.8443V63.8443Z" fill="white"/>
<path d="M453.053 72.1512C444.566 72.1511 436.427 75.5225 430.425 81.5237C424.424 87.5248 421.053 95.6641 421.053 104.151C421.053 112.638 424.424 120.777 430.425 126.778C436.426 132.78 444.566 136.151 453.053 136.151H453.053C461.54 136.151 469.679 132.78 475.68 126.779C481.681 120.777 485.053 112.638 485.053 104.151C485.053 95.6642 481.681 87.5249 475.68 81.5237C469.679 75.5226 461.54 72.1512 453.053 72.1512Z" fill="#E6E6E6"/>
<path d="M685.391 131.151H517.391C515.27 131.151 513.235 130.308 511.734 128.808C510.234 127.308 509.391 125.273 509.391 123.151C509.391 121.03 510.234 118.995 511.734 117.494C513.235 115.994 515.27 115.151 517.391 115.151H685.391C687.513 115.151 689.548 115.994 691.048 117.494C692.548 118.995 693.391 121.03 693.391 123.151C693.391 125.273 692.548 127.308 691.048 128.808C689.548 130.308 687.513 131.151 685.391 131.151Z" fill="#E6E6E6"/>
<path d="M570.391 97.1513H517.391C515.27 97.1513 513.235 96.3085 511.734 94.8082C510.234 93.3079 509.391 91.2731 509.391 89.1513C509.391 87.0296 510.234 84.9948 511.734 83.4945C513.235 81.9942 515.27 81.1513 517.391 81.1513H570.391C572.513 81.1513 574.548 81.9942 576.048 83.4945C577.548 84.9948 578.391 87.0296 578.391 89.1513C578.391 91.2731 577.548 93.3079 576.048 94.8082C574.548 96.3085 572.513 97.1513 570.391 97.1513Z" fill="#E6E6E6"/>
<path d="M453.053 206.151C444.566 206.151 436.427 209.522 430.425 215.524C424.424 221.525 421.053 229.664 421.053 238.151C421.053 246.638 424.424 254.777 430.425 260.778C436.426 266.78 444.566 270.151 453.053 270.151H453.053C461.54 270.151 469.679 266.78 475.68 260.779C481.681 254.777 485.053 246.638 485.053 238.151C485.053 229.664 481.681 221.525 475.68 215.524C469.679 209.523 461.54 206.151 453.053 206.151Z" fill="#E6E6E6"/>
<path d="M685.391 265.151H517.391C515.27 265.151 513.235 264.308 511.734 262.808C510.234 261.308 509.391 259.273 509.391 257.151C509.391 255.03 510.234 252.995 511.734 251.494C513.235 249.994 515.27 249.151 517.391 249.151H685.391C687.513 249.151 689.548 249.994 691.048 251.494C692.548 252.995 693.391 255.03 693.391 257.151C693.391 259.273 692.548 261.308 691.048 262.808C689.548 264.308 687.513 265.151 685.391 265.151Z" fill="#E6E6E6"/>
<path d="M570.391 231.151H517.391C515.27 231.151 513.235 230.308 511.734 228.808C510.234 227.308 509.391 225.273 509.391 223.151C509.391 221.03 510.234 218.995 511.734 217.494C513.235 215.994 515.27 215.151 517.391 215.151H570.391C572.513 215.151 574.548 215.994 576.048 217.494C577.548 218.995 578.391 221.03 578.391 223.151C578.391 225.273 577.548 227.308 576.048 228.808C574.548 230.308 572.513 231.151 570.391 231.151Z" fill="#E6E6E6"/>
<path d="M453.053 474.151C444.566 474.151 436.427 477.523 430.425 483.524C424.424 489.525 421.053 497.664 421.053 506.151C421.053 514.638 424.424 522.777 430.425 528.778C436.426 534.78 444.566 538.151 453.053 538.151H453.053C461.54 538.151 469.679 534.78 475.68 528.779C481.681 522.777 485.053 514.638 485.053 506.151C485.053 497.664 481.681 489.525 475.68 483.524C469.679 477.523 461.54 474.151 453.053 474.151Z" fill="#E6E6E6"/>
<path d="M685.391 533.151H517.391C515.27 533.151 513.235 532.308 511.734 530.808C510.234 529.308 509.391 527.273 509.391 525.151C509.391 523.03 510.234 520.995 511.734 519.494C513.235 517.994 515.27 517.151 517.391 517.151H685.391C687.513 517.151 689.548 517.994 691.048 519.494C692.548 520.995 693.391 523.03 693.391 525.151C693.391 527.273 692.548 529.308 691.048 530.808C689.548 532.308 687.513 533.151 685.391 533.151Z" fill="#E6E6E6"/>
<path d="M570.391 499.151H517.391C515.27 499.151 513.235 498.308 511.734 496.808C510.234 495.308 509.391 493.273 509.391 491.151C509.391 489.03 510.234 486.995 511.734 485.494C513.235 483.994 515.27 483.151 517.391 483.151H570.391C572.513 483.151 574.548 483.994 576.048 485.494C577.548 486.995 578.391 489.03 578.391 491.151C578.391 493.273 577.548 495.308 576.048 496.808C574.548 498.308 572.513 499.151 570.391 499.151Z" fill="#E6E6E6"/>
<path d="M453.053 608.151C444.566 608.151 436.427 611.522 430.425 617.524C424.424 623.525 421.053 631.664 421.053 640.151C421.053 648.638 424.424 656.777 430.425 662.778C436.426 668.78 444.566 672.151 453.053 672.151H453.053C461.54 672.151 469.679 668.78 475.68 662.779C481.681 656.777 485.053 648.638 485.053 640.151C485.053 631.664 481.681 623.525 475.68 617.524C469.679 611.523 461.54 608.151 453.053 608.151Z" fill="#E6E6E6"/>
<path d="M685.391 667.151H517.391C515.27 667.151 513.235 666.308 511.734 664.808C510.234 663.308 509.391 661.273 509.391 659.151C509.391 657.03 510.234 654.995 511.734 653.494C513.235 651.994 515.27 651.151 517.391 651.151H685.391C687.513 651.151 689.548 651.994 691.048 653.494C692.548 654.995 693.391 657.03 693.391 659.151C693.391 661.273 692.548 663.308 691.048 664.808C689.548 666.308 687.513 667.151 685.391 667.151Z" fill="#E6E6E6"/>
<path d="M570.391 633.151H517.391C515.27 633.151 513.235 632.308 511.734 630.808C510.234 629.308 509.391 627.273 509.391 625.151C509.391 623.03 510.234 620.995 511.734 619.494C513.235 617.994 515.27 617.151 517.391 617.151H570.391C572.513 617.151 574.548 617.994 576.048 619.494C577.548 620.995 578.391 623.03 578.391 625.151C578.391 627.273 577.548 629.308 576.048 630.808C574.548 632.308 572.513 633.151 570.391 633.151Z" fill="#E6E6E6"/>
<path d="M750.222 449.151H364.222C359.847 449.146 355.653 447.406 352.56 444.313C349.467 441.22 347.727 437.026 347.722 432.651V308.651C347.727 304.277 349.467 300.083 352.56 296.99C355.653 293.896 359.847 292.156 364.222 292.151H750.222C754.596 292.156 758.79 293.896 761.884 296.99C764.977 300.083 766.717 304.277 766.722 308.651V432.651C766.717 437.026 764.977 441.22 761.884 444.313C758.79 447.406 754.596 449.146 750.222 449.151Z" fill="white"/>
<path d="M411.626 416.378C402.582 416.378 393.741 413.696 386.221 408.671C378.702 403.647 372.841 396.505 369.38 388.15C365.919 379.795 365.014 370.601 366.778 361.731C368.542 352.861 372.897 344.713 379.292 338.318C385.687 331.923 393.835 327.568 402.705 325.804C411.575 324.04 420.769 324.945 429.124 328.406C437.479 331.867 444.621 337.728 449.645 345.247C454.67 352.767 457.352 361.608 457.352 370.651C457.338 382.775 452.516 394.397 443.944 402.969C435.371 411.542 423.749 416.364 411.626 416.378V416.378ZM411.626 326.925C402.977 326.925 394.523 329.49 387.333 334.295C380.142 339.099 374.537 345.928 371.228 353.918C367.918 361.908 367.052 370.7 368.74 379.182C370.427 387.664 374.591 395.455 380.707 401.57C386.822 407.686 394.613 411.85 403.095 413.537C411.577 415.225 420.369 414.359 428.359 411.049C436.349 407.74 443.178 402.135 447.982 394.944C452.787 387.754 455.352 379.3 455.352 370.651C455.339 359.059 450.727 347.944 442.53 339.747C434.333 331.549 423.218 326.938 411.626 326.925V326.925Z" fill="#3F3D56"/>
<path d="M736.363 408.389H501.551C500.082 408.391 498.626 408.103 497.269 407.541C495.911 406.98 494.677 406.157 493.637 405.118C492.598 404.08 491.773 402.847 491.211 401.489C490.648 400.132 490.359 398.677 490.359 397.208C490.359 395.739 490.648 394.284 491.211 392.926C491.773 391.569 492.598 390.336 493.637 389.298C494.677 388.259 495.911 387.436 497.269 386.874C498.626 386.313 500.082 386.025 501.551 386.026H736.363C737.832 386.025 739.288 386.313 740.646 386.874C742.003 387.436 743.237 388.259 744.277 389.298C745.316 390.336 746.141 391.569 746.703 392.926C747.266 394.284 747.555 395.739 747.555 397.208C747.555 398.677 747.266 400.132 746.703 401.489C746.141 402.847 745.316 404.08 744.277 405.118C743.237 406.157 742.003 406.98 740.646 407.541C739.288 408.103 737.832 408.391 736.363 408.389V408.389Z" fill="#E8C1F4"/>
<path d="M575.629 360.868H501.551C500.082 360.869 498.626 360.581 497.269 360.02C495.911 359.458 494.677 358.635 493.637 357.597C492.598 356.558 491.773 355.325 491.211 353.968C490.648 352.61 490.359 351.155 490.359 349.686C490.359 348.217 490.648 346.762 491.211 345.405C491.773 344.047 492.598 342.814 493.637 341.776C494.677 340.737 495.911 339.914 497.269 339.353C498.626 338.791 500.082 338.503 501.551 338.505H575.629C577.098 338.503 578.553 338.791 579.911 339.353C581.269 339.914 582.503 340.737 583.542 341.776C584.581 342.814 585.406 344.047 585.969 345.405C586.531 346.762 586.821 348.217 586.821 349.686C586.821 351.155 586.531 352.61 585.969 353.968C585.406 355.325 584.581 356.558 583.542 357.597C582.503 358.635 581.269 359.458 579.911 360.02C578.553 360.581 577.098 360.869 575.629 360.868V360.868Z" fill="#E8C1F4"/>
<path d="M750.222 449.151H364.222C359.847 449.146 355.653 447.406 352.56 444.313C349.467 441.22 347.727 437.026 347.722 432.651V308.651C347.727 304.277 349.467 300.083 352.56 296.99C355.653 293.896 359.847 292.156 364.222 292.151H750.222C754.596 292.156 758.79 293.896 761.884 296.99C764.977 300.083 766.717 304.277 766.722 308.651V432.651C766.717 437.026 764.977 441.22 761.884 444.313C758.79 447.406 754.596 449.146 750.222 449.151ZM364.222 293.151C360.112 293.156 356.173 294.791 353.267 297.696C350.361 300.602 348.727 304.542 348.722 308.651V432.651C348.727 436.761 350.361 440.701 353.267 443.606C356.173 446.512 360.112 448.147 364.222 448.151H750.222C754.331 448.147 758.271 446.512 761.177 443.606C764.083 440.701 765.717 436.761 765.722 432.651V308.651C765.717 304.542 764.083 300.602 761.177 297.696C758.271 294.791 754.331 293.156 750.222 293.151H364.222Z" fill="#3F3D56"/>
<path d="M410.817 392.904C421.12 392.904 429.472 384.552 429.472 374.25C429.472 363.947 421.12 355.595 410.817 355.595C400.515 355.595 392.163 363.947 392.163 374.25C392.163 384.552 400.515 392.904 410.817 392.904Z" fill="#2F2E41"/>
<path d="M396.257 364.192C399.271 361.177 399.882 356.901 397.621 354.64C395.36 352.379 391.084 352.99 388.069 356.004C385.055 359.019 384.444 363.295 386.705 365.556C388.966 367.817 393.242 367.206 396.257 364.192Z" fill="#2F2E41"/>
<path d="M430.26 358.268C431.516 355.328 429.356 351.586 425.436 349.912C421.515 348.237 417.319 349.263 416.063 352.203C414.807 355.144 416.967 358.885 420.887 360.559C424.808 362.234 429.004 361.208 430.26 358.268Z" fill="#2F2E41"/>
<path d="M411.409 394.534C420.153 394.534 427.241 387.446 427.241 378.703C427.241 369.959 420.153 362.871 411.409 362.871C402.665 362.871 395.577 369.959 395.577 378.703C395.577 387.446 402.665 394.534 411.409 394.534Z" fill="#FFB8B8"/>
<path d="M394.773 368.745C398.391 371.238 402.685 372.565 407.079 372.548C405.512 373.634 403.727 374.369 401.849 374.699C407.691 375.952 413.729 375.986 419.584 374.799C420.886 374.59 422.142 374.159 423.297 373.524C423.872 373.202 424.374 372.763 424.769 372.235C425.164 371.707 425.443 371.102 425.588 370.459C425.978 368.236 424.245 366.217 422.445 364.856C419.689 362.804 416.512 361.39 413.143 360.716C409.773 360.043 406.296 360.127 402.963 360.963C400.743 361.409 398.722 362.551 397.193 364.223C395.78 365.971 395.361 368.665 396.708 370.465L394.773 368.745Z" fill="#2F2E41"/>
<path d="M177.735 511.165C177.272 509.665 177.144 508.081 177.359 506.525C177.574 504.969 178.128 503.48 178.982 502.161C179.835 500.843 180.967 499.727 182.298 498.894C183.629 498.06 185.126 497.528 186.685 497.336L238.018 437.353L249.991 449.924L198.86 507.437C199.009 510.077 198.185 512.68 196.544 514.753C194.902 516.826 192.557 518.225 189.953 518.684C187.349 519.144 184.667 518.632 182.416 517.246C180.164 515.861 178.498 513.697 177.735 511.165V511.165Z" fill="#FFB8B8"/>
<path d="M221.318 446.719C221.266 446.075 221.353 445.426 221.574 444.819C221.795 444.211 222.144 443.658 222.598 443.198L238.457 427.117C240.408 424.443 243.34 422.653 246.61 422.139C249.879 421.624 253.219 422.428 255.897 424.373C258.574 426.318 260.371 429.245 260.893 432.514C261.415 435.782 260.619 439.123 258.68 441.806L248.136 461.861C247.835 462.434 247.414 462.934 246.902 463.329C246.39 463.724 245.799 464.005 245.169 464.151C244.539 464.297 243.885 464.305 243.251 464.176C242.618 464.046 242.02 463.781 241.498 463.4L223.148 449.989C222.626 449.608 222.192 449.119 221.876 448.554C221.56 447.99 221.37 447.364 221.318 446.719V446.719Z" fill="#E8C1F4"/>
<path d="M258.556 409.915C272.121 409.915 283.117 398.918 283.117 385.354C283.117 371.789 272.121 360.793 258.556 360.793C244.991 360.793 233.995 371.789 233.995 385.354C233.995 398.918 244.991 409.915 258.556 409.915Z" fill="#FFB8B8"/>
<path d="M245.201 495.262C244.713 494.899 244.304 494.439 244.001 493.912C243.697 493.385 243.504 492.801 243.435 492.197C241.737 478.003 239.266 463.912 236.033 449.987C234.601 443.73 235.49 437.165 238.535 431.514C241.579 425.863 246.572 421.509 252.584 419.262C258.597 417.015 265.221 417.028 271.226 419.297C277.23 421.567 282.206 425.939 285.229 431.601C294.889 449.729 295.626 474.618 295.495 484.477C295.481 485.53 295.097 486.543 294.411 487.341C293.725 488.14 292.781 488.672 291.742 488.845L248.647 496.098C248.396 496.141 248.142 496.162 247.887 496.162C246.918 496.162 245.975 495.845 245.201 495.262Z" fill="#202C61"/>
<path d="M338.241 415.291C338.118 415.83 338.038 416.379 338.001 416.931L295.044 441.713L284.602 435.702L273.471 450.274L290.922 462.712C292.331 463.716 294.029 464.237 295.76 464.195C297.49 464.153 299.161 463.55 300.52 462.478L344.816 427.532C346.815 428.272 348.992 428.386 351.058 427.858C353.123 427.331 354.979 426.187 356.378 424.579C357.778 422.971 358.655 420.975 358.892 418.857C359.13 416.739 358.716 414.598 357.708 412.72C356.699 410.842 355.142 409.316 353.245 408.344C351.348 407.373 349.2 407.002 347.086 407.281C344.973 407.56 342.995 408.476 341.415 409.907C339.834 411.337 338.727 413.215 338.241 415.291V415.291Z" fill="#FFB8B8"/>
<path d="M293.608 442.887L279.724 460.881C279.329 461.393 278.828 461.813 278.256 462.114C277.684 462.415 277.053 462.589 276.407 462.625C275.762 462.66 275.116 462.556 274.514 462.319C273.912 462.083 273.369 461.719 272.92 461.253L257.203 444.932C254.595 442.896 252.901 439.909 252.493 436.626C252.084 433.343 252.993 430.032 255.022 427.418C257.051 424.805 260.033 423.103 263.315 422.684C266.597 422.266 269.91 423.167 272.529 425.188L292.242 436.211C292.807 436.526 293.296 436.96 293.678 437.482C294.06 438.004 294.324 438.602 294.454 439.236C294.583 439.869 294.575 440.524 294.429 441.153C294.283 441.783 294.003 442.375 293.608 442.887H293.608Z" fill="#E8C1F4"/>
<path d="M315.252 716.442L327.512 716.441L330.398 669.306L315.25 669.154L315.252 716.442Z" fill="#FFB8B8"/>
<path d="M312.125 712.439L336.269 712.438H336.27C338.29 712.438 340.291 712.836 342.158 713.609C344.025 714.382 345.721 715.516 347.15 716.944C348.578 718.373 349.712 720.069 350.485 721.936C351.258 723.803 351.656 725.804 351.656 727.824V728.324L312.126 728.326L312.125 712.439Z" fill="#2F2E41"/>
<path d="M198.252 716.442L210.512 716.441L216.344 669.153L198.25 669.154L198.252 716.442Z" fill="#FFB8B8"/>
<path d="M195.125 712.439L219.269 712.438H219.27C221.29 712.438 223.291 712.836 225.158 713.609C227.025 714.382 228.721 715.516 230.15 716.944C231.578 718.373 232.712 720.069 233.485 721.936C234.258 723.803 234.656 725.804 234.656 727.824V728.324L195.126 728.326L195.125 712.439Z" fill="#2F2E41"/>
<path d="M211.614 691.883L196.399 689.898C195.763 689.815 195.152 689.597 194.608 689.259C194.063 688.921 193.597 688.47 193.241 687.937C192.884 687.404 192.646 686.801 192.542 686.169C192.437 685.536 192.469 684.889 192.636 684.269L214.83 575.208C217.036 564.62 218.562 553.902 219.4 543.119C220.048 534.345 222.616 521.939 231.172 512.663C234.652 508.856 237.899 504.844 240.897 500.647L247.615 491.345L292.367 484.225L292.398 484.779C294.331 520.34 303.568 555.122 319.532 586.957C326.714 601.275 330.836 616.931 331.636 632.928L334.172 682.381C334.204 683.007 334.104 683.634 333.88 684.219C333.655 684.805 333.311 685.338 332.869 685.783C332.429 686.231 331.898 686.58 331.313 686.808C330.728 687.036 330.101 687.137 329.474 687.105L314.929 686.444C313.943 686.398 312.999 686.029 312.243 685.395C311.487 684.761 310.959 683.896 310.742 682.933L298.598 628.754C298.489 628.27 298.279 627.816 297.983 627.419L259.873 576.605C259.601 576.243 259.235 575.961 258.816 575.79C258.396 575.619 257.938 575.565 257.49 575.634C257.043 575.704 256.622 575.893 256.274 576.183C255.925 576.473 255.662 576.851 255.513 577.279L216.443 688.906C216.132 689.786 215.556 690.548 214.794 691.087C214.033 691.627 213.123 691.917 212.19 691.92C211.997 691.92 211.805 691.908 211.614 691.883V691.883Z" fill="#202C61"/>
<path d="M231.398 368.306C233.349 362.392 234.79 356.321 235.703 350.161C235.99 346.575 235.071 342.715 232.46 340.241C227.571 335.61 219.267 337.816 214.155 342.198C206.767 348.533 203.083 358.267 201.69 367.898C200.298 377.53 200.91 387.324 200.575 397.049C200.24 406.775 198.849 416.775 193.891 425.149C188.932 433.522 179.731 439.95 170.026 439.237C166.108 439.026 162.389 437.449 159.512 434.782C158.1 433.438 157.031 431.776 156.394 429.934C155.756 428.092 155.57 426.124 155.851 424.196C150.89 433.078 153.405 445.117 160.804 452.099C168.203 459.082 179.584 461.056 189.311 458.075C199.038 455.093 207.044 447.618 211.826 438.638C216.607 429.658 218.36 419.285 218.106 409.114C217.911 401.304 216.583 393.43 217.903 385.73C219.223 378.03 224.042 370.211 231.641 368.398L231.398 368.306Z" fill="#2F2E41"/>
<path d="M265.525 378.43C266.82 382.758 271.776 385.427 276.234 384.695C280.693 383.963 284.359 380.292 285.713 375.982C286.938 371.58 286.437 366.876 284.311 362.831C283.14 360.407 281.503 358.237 279.492 356.446C277.481 354.655 275.137 353.278 272.594 352.394C270.036 351.547 267.312 351.326 264.652 351.751C261.991 352.177 259.471 353.235 257.305 354.837C257.075 353.865 256.589 352.972 255.898 352.25C255.208 351.527 254.337 351.002 253.376 350.728C251.441 350.207 249.398 350.237 247.479 350.815C241.95 352.391 237.158 355.877 233.957 360.653C230.796 365.414 228.705 370.803 227.828 376.45C226.32 384.919 226.876 394.173 231.632 401.34C236.389 408.508 246.119 412.74 254.013 409.323C254.506 406.806 253.339 404.272 251.99 402.092C250.641 399.911 249.042 397.787 248.524 395.276C248.006 392.765 248.999 389.693 251.428 388.872C253.501 388.171 255.71 389.306 257.893 389.443C259.133 389.521 260.372 389.272 261.485 388.72C262.597 388.168 263.546 387.333 264.234 386.299C264.923 385.265 265.327 384.068 265.407 382.828C265.486 381.589 265.239 380.35 264.689 379.236L265.525 378.43Z" fill="#2F2E41"/>
<path d="M919 728.787H1C0.734784 728.787 0.480429 728.681 0.292892 728.494C0.105356 728.306 0 728.052 0 727.787C0 727.521 0.105356 727.267 0.292892 727.08C0.480429 726.892 0.734784 726.787 1 726.787H919C919.265 726.787 919.52 726.892 919.707 727.08C919.895 727.267 920 727.521 920 727.787C920 728.052 919.895 728.306 919.707 728.494C919.52 728.681 919.265 728.787 919 728.787Z" fill="#CCCCCC"/>
</g>
<defs>
<clipPath id="clip0">
<rect width="920" height="728.787" fill="white"/>
</clipPath>
</defs>
</svg>
